PathFileType	4	(X/Y/Z)	56_1_7_p0_0-147.trc
DataRate	CameraRate	NumFrames	NumMarkers	Units	OrigDataRate	OrigDataStartFrame	OrigNumFrames
60.0	60.0	6	27	m	60.0	74	148
Frame#	Time	RHip			RKnee			RAnkle			RBigToe			RSmallToe			RHeel			LHip			LKnee			LAnkle			LBigToe			LSmallToe			LHeel			Neck			Head			Nose			RShoulder			RElbow			RWrist			RThumb			RIndex			RPinky			LShoulder			LElbow			LWrist			LThumb			LIndex			LPinky			
		X1	Y1	Z1	X2	Y2	Z2	X3	Y3	Z3	X4	Y4	Z4	X5	Y5	Z5	X6	Y6	Z6	X7	Y7	Z7	X8	Y8	Z8	X9	Y9	Z9	X10	Y10	Z10	X11	Y11	Z11	X12	Y12	Z12	X13	Y13	Z13	X14	Y14	Z14	X15	Y15	Z15	X16	Y16	Z16	X17	Y17	Z17	X18	Y18	Z18	X19	Y19	Z19	X20	Y20	Z20	X21	Y21	Z21	X22	Y22	Z22	X23	Y23	Z23	X24	Y24	Z24	X25	Y25	Z25	X26	Y26	Z26	X27	Y27	Z27	
74	1.2333333333333334	0.42110119048725886	0.6233979799711766	0.288726741759248	0.43111519832646733	0.79551072704022	0.6747169494967838	0.48241602619562574	1.0850218598639358	1.0826033907569714	0.40008329935898757	0.8652467321508224	1.140495595256232	0.47076034288956226	0.9099411060185447	1.153130197789474	0.4980973192945781	1.151624879192277	1.111315266410961	0.23060955805559807	0.7252763569561314	0.2531092752448784	0.28546330401391434	0.9260071005025634	0.656386417834572	0.32728790667459	1.1065276252678593	1.036774720641693	0.24171187152791937	0.8882606172805071	1.1164182109605556	0.23034402774032736	0.9991078041756222	1.1296260117535475	0.3567400475933753	1.1691804169147815	1.0930638143496016	0.34971591974088045	0.4951366048341489	-0.2404428648764235	0.3323206794517034	0.38576421001138234	-0.4478153789569929	0.2880743057565002	0.3633859294280674	-0.3144326750301169	0.4856410097729046	0.4817981498151863	-0.10908581383817888	0.5612027082943066	0.606187117884144	0.1333887434961927	0.5326518914319591	0.6184407386364685	0.38967029347691184	0.4978224527434799	0.643646785538534	0.49516981806428223	0.5130980006919458	0.6256595795184761	0.5140180173497987	0.5478521086172615	0.6611687381231335	0.5057230555916354	0.223170938294764	0.632437123955474	-0.195458527810829	0.04275407327104753	0.5991916264572107	-0.0299384189755527	0.06362579610038302	0.5050146917026535	-0.2293437453417639	0.07361935463010845	0.4273051031010788	-0.2998973674697637	0.05779334708221132	0.45884935479098915	-0.32564209381536063	0.01608221546115233	0.40606530710800715	-0.2940648760652072
75	1.25	0.41768095980543657	0.6252118908542597	0.29239627507350396	0.4390813581345848	0.8070180746527224	0.676510298514304	0.48241120857863634	1.084692565664267	1.0872867407807285	0.3980765486793989	0.8561049709237658	1.138129079172147	0.47605940531936747	0.9113522138352232	1.1543677147946723	0.49842686139064685	1.1523938692208535	1.1116368450308096	0.23044387639839528	0.7249218865518612	0.2531454272555491	0.28543346202511155	0.9259102687400235	0.6562989618680377	0.3273176305722196	1.1065485500462842	1.03675430058834	0.24103172674872103	0.8899814340888175	1.1200567992587727	0.2302964696767404	0.9988451291022201	1.1297238970791004	0.36329018517087963	1.1731731979942412	1.0947795535637723	0.34986332733358794	0.49413396653051955	-0.24341524234909226	0.3329400999887957	0.3872648333494559	-0.4449191044979203	0.28810085803962016	0.3634131314344142	-0.3145978228744205	0.48554120946582485	0.4817077168593935	-0.10911451801096107	0.561247685000279	0.6062262776648035	0.13335508306310095	0.5327318527675934	0.6186015035130538	0.3896511151646857	0.4917057174894598	0.6289985753055203	0.4978455475001763	0.49871682905728626	0.597344147568701	0.5081523220245547	0.5388284738402063	0.6499363263102108	0.5046153665713571	0.22317871077323503	0.632436403693819	-0.19549997409414283	0.0426644886294965	0.5991715709988371	-0.029933453217001933	0.05444405866778992	0.5174961336719346	-0.23160118372932054	0.067932573422695	0.43704336581351905	-0.30639252063860056	0.04810192155395373	0.4839855594545264	-0.33155085880018786	0.009750524647183102	0.43010926351281203	-0.2991312565883814
76	1.2666666666666666	0.4165850011577388	0.6092473806888092	0.2927913221872404	0.4311985008034819	0.795469271933715	0.6744987378400317	0.48247092157167715	1.0853364816531572	1.0827400319125338	0.3941429838587009	0.8563234308085919	1.1410950676199172	0.4758383761316588	0.9111491813625942	1.1543646388252247	0.49861715544861385	1.1529698451668884	1.1118441412515765	0.2314553450137894	0.7275080466128885	0.25701039033779405	0.297697813901464	0.9397984137659066	0.6583685713850125	0.3273513697289827	1.1065743286580645	1.0367331566249236	0.24171445241328024	0.8879121912772172	1.1163452504901679	0.23003985949492115	0.9813862379985091	1.1257686104022853	0.3632206786190388	1.1730864250597122	1.09509690001842	0.34980833486457563	0.49525225903772824	-0.24056225762389932	0.33257855207099485	0.3856802067659028	-0.4476898134454722	0.2881298502246045	0.3634020919400355	-0.31461194886606586	0.4841510992139905	0.4675325944789585	-0.10683699124518399	0.5592978876774396	0.590403189047757	0.13467842740617234	0.5307866240484966	0.6022320325907282	0.3893516650510552	0.49710198308446596	0.6432510494009461	0.4986008053208925	0.5033973947355906	0.598840332724534	0.5157890768677694	0.5410016141602673	0.6671332838856641	0.5054713904047388	0.2232351842295311	0.632284628543859	-0.1956053048906667	0.042509664304183424	0.5987763899870545	-0.02991585229025457	0.04386362343550161	0.5064723508681049	-0.22933049369369388	0.07021692379315701	0.46111841904015816	-0.3124790191364812	0.04107595864910211	0.4851528873772678	-0.3318724533511926	0.008918584266223101	0.44282745021897657	-0.3023440139831142
77	1.2833333333333334	0.4165625578176672	0.6091544240059684	0.2927477674420806	0.43911618460789426	0.8069872695360772	0.6761995365021707	0.4826342650474908	1.08558631419241	1.082815121784272	0.3995778612319127	0.8588212667393249	1.1424269047001963	0.4757740380507376	0.9111462748342941	1.1544085408055473	0.49896600298426835	1.153532147960445	1.1120395667860274	0.2304468773921778	0.7250263048933495	0.2531762965863895	0.2933264266208805	0.9392531417952086	0.6579760659549004	0.32737772264425863	1.106643668718811	1.036722382443211	0.24175830739861617	0.8879660661802441	1.1163157384738778	0.23005571564467636	0.9813515011370433	1.1256596396838743	0.363263400093456	1.173253106789406	1.0951154926340738	0.3498294671926591	0.49498957341378513	-0.24057919061536356	0.3392445941542467	0.39444886626245534	-0.4504743049757608	0.2941487175880075	0.3706254653796324	-0.32008978248052233	0.48411477596056274	0.4674959545310098	-0.10684706542297333	0.5593368865137431	0.590080466416686	0.13061394920431746	0.5308044609859319	0.601825102062508	0.38926165617185393	0.4971360266891957	0.6433860730760846	0.49866610263176814	0.5035441139575164	0.598749891439845	0.512654179264689	0.5494200562930088	0.6782929242091662	0.5063646383799482	0.2230611982652745	0.6322004382399689	-0.19542069788315725	0.036532576146419735	0.588383971211974	-0.02881603537520619	0.043049815209569145	0.519268990146174	-0.23203017309707288	0.06620450609938869	0.46143118547624073	-0.3129852587753826	0.03715854633959466	0.48551303501196713	-0.33191755937836515	0.00831505666621064	0.4549570237909301	-0.30547425029250586
78	1.3	0.4167600693401901	0.609311575264169	0.29274027288919674	0.4393004189771953	0.8073122211543889	0.6725934510792728	0.47403991656638766	1.0708938237861005	1.0836882141494677	0.4055348620978911	0.8676567028625677	1.1417829643921582	0.4761500103274569	0.9116761916116207	1.1544862493876156	0.4979443898781458	1.1517347238243083	1.111455072799017	0.23870285416499804	0.7395498632809787	0.25693494007704615	0.29782461685502826	0.9398498660637093	0.6582915558551993	0.3273464904688901	1.106502011292699	1.036743001011364	0.24874114408213477	0.9019057064509374	1.1204079176800545	0.23011320815760544	0.9815272645542211	1.1257343808060056	0.36314602409323726	1.1729793732590736	1.0950644555823146	0.34992679268523275	0.49413473231061295	-0.24344801022327914	0.3400862715561757	0.3964776929517286	-0.44787987786523664	0.2942768506995105	0.37068223808727174	-0.3201027439027322	0.48409847375002213	0.4674232889929457	-0.10683091971211879	0.5592721584439478	0.5898888427255286	0.1347651887073726	0.5287874856814828	0.5851006868707506	0.3891582840649285	0.4973514783853859	0.6436253425479398	0.4987169405582747	0.5114198443946413	0.6089963964783565	0.5166713787998756	0.5476829396855769	0.661344592625029	0.5057465431123445	0.2230165575673678	0.6321131146225858	-0.1954540958820937	0.036380715867332415	0.5887136211701461	-0.028824743180388995	0.043335081752308234	0.5186070310775389	-0.23506774324731222	0.06731200627133949	0.4492690553677882	-0.310311962429428	0.04373070523395921	0.4946373908338735	-0.3403016645491149	0.0028544196906473253	0.44544383429779627	-0.3033741980513891
79	1.3166666666666667	0.4165927031096559	0.6090961259578227	0.29266879535190726	0.4392788949856848	0.8070920765181049	0.6724509400512898	0.4824576739008033	1.084784477402203	1.0873085720735143	0.4055622948281802	0.8677280083765564	1.141759508915178	0.4762692441259632	0.9118489729964332	1.1545099260197274	0.49844728546656786	1.1526668674991205	1.111766667516461	0.23138645036742297	0.727454172233735	0.257016400668233	0.2932541639264914	0.9390023677946465	0.6577882550187955	0.32727222028643527	1.106420100003605	1.036758143225216	0.24866954808176714	0.9018014228746748	1.1204188258011303	0.23010811171121487	0.9814265962461697	1.1257677580133816	0.36311218353971075	1.1728925166390567	1.0951188446474283	0.34986028677956976	0.49410471730476446	-0.24338967075982407	0.3402983252763024	0.3967016659820467	-0.44798943383182216	0.29427238314739507	0.37071384005825136	-0.3202136668412572	0.48410496026314115	0.46743077745064837	-0.10684215267470241	0.5592192271246843	0.5897082285397753	0.1346971039281362	0.528749619060876	0.5848697556648156	0.3892105478817257	0.49748185005838713	0.6436836254313463	0.4987998194396596	0.5112082336569431	0.6087630306955097	0.5167663056787405	0.5477196505564843	0.6610545522274949	0.5056747678379783	0.22300544191929528	0.6322226915939946	-0.19539530386372103	0.03623342076809113	0.5890144747941677	-0.02871942025230496	0.043393092581074585	0.5186754260889093	-0.23502443600916648	0.06746013312823015	0.44976402835209567	-0.3101410666922879	0.04840747429906147	0.4835481499514249	-0.3349590053506302	0.008342816149950425	0.45526204457089764	-0.3052487630824354
